<?xml version="1.0" standalone="no"?>
<!DOCTYPE svg PUBLIC "-//W3C//DTD SVG 20010904//EN"
 "http://www.w3.org/TR/2001/REC-SVG-20010904/DTD/svg10.dtd">
<svg version="1.0" xmlns="http://www.w3.org/2000/svg"
 width="1568.000000pt" height="1568.000000pt" viewBox="0 0 1568.000000 1568.000000"
 preserveAspectRatio="xMidYMid meet">
<metadata>
Created by potrace 1.14, written by Peter Selinger 2001-2017
</metadata>
<g transform="translate(0.000000,1568.000000) scale(0.100000,-0.100000)"
fill="#000000" stroke="none">
<path d="M12198 15675 c-1 -2 -28 -6 -58 -9 -109 -11 -208 -32 -304 -66 -31
-10 -56 -17 -56 -15 0 5 -87 -33 -190 -82 -83 -40 -215 -123 -302 -190 -104
-80 -276 -260 -338 -353 -8 -12 -28 -41 -44 -63 -47 -66 -153 -284 -185 -382
-30 -90 -62 -225 -77 -320 -10 -66 -11 -385 -1 -455 27 -192 76 -356 159 -530
119 -248 284 -445 538 -643 74 -58 295 -179 375 -205 22 -7 49 -17 60 -22 71
-30 226 -68 355 -85 93 -12 399 -13 450 -1 14 4 39 8 55 11 89 15 149 30 235
57 88 28 115 39 240 96 72 33 199 112 285 179 363 278 599 689 659 1145 13
101 14 356 1 448 -10 72 -45 228 -61 273 -9 23 -17 49 -19 58 -2 9 -18 52 -36
95 -30 73 -48 109 -109 221 -67 122 -246 332 -375 438 -33 28 -62 53 -65 56
-29 32 -297 186 -375 215 -137 51 -180 65 -250 82 -44 11 -100 23 -125 27 -25
4 -54 9 -65 12 -24 6 -371 13 -377 8z"/>
<path d="M6567 10964 c-1 -1 -56 -5 -122 -9 -160 -9 -298 -21 -355 -30 -14 -2
-50 -7 -80 -11 -30 -4 -64 -8 -75 -9 -11 -2 -42 -6 -70 -10 -91 -12 -446 -86
-584 -121 -154 -39 -397 -113 -516 -156 -44 -17 -91 -33 -105 -38 -37 -11
-178 -68 -227 -90 -24 -11 -45 -20 -47 -20 -24 0 -435 -207 -585 -294 -62 -36
-117 -66 -121 -66 -5 0 -10 -3 -12 -8 -1 -4 -39 -30 -83 -57 -518 -320 -1041
-800 -1428 -1311 -83 -110 -244 -346 -295 -434 -18 -30 -37 -62 -42 -70 -109
-173 -302 -575 -392 -815 -70 -187 -165 -483 -182 -571 -3 -11 -16 -66 -29
-124 -24 -98 -39 -173 -52 -245 -3 -16 -7 -40 -9 -51 -5 -24 -11 -64 -22 -139
-3 -27 -8 -59 -10 -70 -2 -11 -7 -48 -9 -81 -3 -34 -8 -72 -10 -85 -26 -136
-26 -950 0 -1111 2 -13 6 -50 9 -83 3 -33 8 -69 10 -80 2 -11 7 -47 11 -80 4
-32 9 -68 11 -80 3 -11 7 -38 10 -60 11 -76 74 -370 99 -460 14 -49 27 -99 30
-110 15 -64 102 -332 117 -359 5 -10 11 -26 13 -35 19 -91 200 -488 323 -711
155 -280 377 -611 524 -782 13 -14 52 -61 88 -104 285 -341 671 -686 1080
-966 128 -87 335 -218 346 -218 3 0 18 -8 32 -18 28 -19 186 -105 309 -166 72
-36 361 -166 370 -166 3 0 19 -6 36 -14 18 -8 77 -31 132 -51 55 -19 110 -40
121 -45 32 -13 275 -88 379 -117 88 -24 107 -29 143 -37 9 -2 37 -9 62 -16 25
-7 56 -14 70 -17 14 -2 41 -8 60 -13 39 -10 169 -36 215 -43 17 -3 84 -14 150
-26 66 -11 143 -23 170 -26 28 -3 64 -7 80 -10 17 -2 59 -7 95 -10 36 -3 79
-8 95 -10 111 -13 317 -20 620 -20 408 0 549 8 820 46 177 25 269 42 506 94
54 12 234 60 284 76 33 10 89 28 124 39 73 23 145 66 184 109 28 32 73 112 85
152 4 13 7 2249 7 4969 l0 4945 -32 66 c-33 67 -103 143 -160 172 -87 46 -536
162 -778 203 -11 1 -29 5 -40 7 -11 3 -56 10 -100 17 -44 6 -91 13 -105 16
-14 2 -72 8 -130 14 -58 6 -116 12 -130 15 -60 10 -277 18 -568 19 -172 1
-314 1 -315 0z"/>
<path d="M11408 10958 c-123 -16 -266 -63 -375 -124 -275 -153 -459 -403 -529
-719 -17 -76 -18 -303 -20 -4606 -2 -4635 -2 -4543 32 -4704 3 -16 7 -34 8
-40 5 -25 50 -136 77 -189 148 -291 433 -501 762 -561 57 -11 306 -13 1207
-12 l1135 2 90 27 c143 42 172 54 299 127 151 86 304 254 393 431 33 64 81
201 88 250 2 14 8 54 13 90 11 74 10 9116 0 9140 -4 8 -9 31 -12 50 -3 19 -17
71 -32 115 -123 370 -413 627 -799 711 -73 16 -176 18 -1180 19 -605 0 -1125
-3 -1157 -7z"/>
</g>
</svg>
