<svg width="348" height="253" viewBox="0 0 348 253" fill="none" xmlns="http://www.w3.org/2000/svg">
<path d="M185.211 252.941C258.898 252.941 318.633 246.707 318.633 239.017C318.633 231.326 258.898 225.092 185.211 225.092C111.524 225.092 51.7891 231.326 51.7891 239.017C51.7891 246.707 111.524 252.941 185.211 252.941Z" fill="#023948"/>
<path d="M341.268 189.023L338.468 186.326L335.668 189.023C335.042 189.627 334.193 189.966 333.308 189.967C332.423 189.967 331.573 189.629 330.947 189.026C330.32 188.423 329.968 187.606 329.968 186.753C329.967 185.9 330.318 185.082 330.944 184.478L333.749 181.781L330.944 179.076C330.634 178.777 330.389 178.423 330.221 178.033C330.053 177.643 329.967 177.226 329.967 176.804C329.967 176.382 330.054 175.964 330.221 175.574C330.389 175.184 330.635 174.83 330.944 174.532C331.254 174.234 331.622 173.997 332.026 173.835C332.431 173.674 332.865 173.591 333.303 173.591C333.741 173.591 334.174 173.674 334.579 173.836C334.984 173.997 335.351 174.234 335.661 174.532L338.461 177.23L341.268 174.532C341.578 174.234 341.945 173.997 342.35 173.836C342.754 173.674 343.188 173.591 343.626 173.591C344.064 173.591 344.498 173.674 344.902 173.835C345.307 173.997 345.675 174.234 345.984 174.532C346.294 174.83 346.54 175.184 346.707 175.574C346.875 175.964 346.961 176.382 346.961 176.804C346.961 177.226 346.875 177.643 346.708 178.033C346.54 178.423 346.295 178.777 345.985 179.076L343.182 181.781L345.987 184.478C346.612 185.081 346.964 185.898 346.964 186.751C346.964 187.603 346.612 188.421 345.986 189.024C345.361 189.626 344.512 189.965 343.627 189.965C342.742 189.965 341.894 189.626 341.268 189.023Z" fill="#F7DA33"/>
<path d="M11.6198 55.1751L8.81983 52.4739L6.01983 55.1713C5.7103 55.4702 5.3427 55.7074 4.93801 55.8694C4.53332 56.0314 4.09946 56.1151 3.66122 56.1156C2.77614 56.1166 1.9269 55.7788 1.30033 55.1766C0.673754 54.5744 0.321169 53.757 0.320138 52.9044C0.319106 52.0517 0.669713 51.2336 1.29483 50.63L4.09483 47.9326L1.29483 45.2352C0.668387 44.6326 0.316087 43.8149 0.315431 42.9621C0.314774 42.1093 0.665815 41.2911 1.29133 40.6877C1.91684 40.0842 2.76559 39.7448 3.65085 39.7441C4.53612 39.7435 5.38539 40.0817 6.01183 40.6843L8.81183 43.3817L11.6198 40.6843C12.2479 40.0932 13.0926 39.7645 13.9707 39.7695C14.8487 39.7744 15.6893 40.1127 16.3102 40.7109C16.931 41.3091 17.282 42.119 17.287 42.9649C17.2919 43.8108 16.9506 44.6244 16.3368 45.2294L13.5368 47.9268L16.3368 50.6242C16.647 50.9226 16.8932 51.2769 17.0612 51.6669C17.2292 52.0569 17.3159 52.475 17.3162 52.8973C17.3165 53.3196 17.2305 53.7378 17.0631 54.128C16.8956 54.5183 16.6501 54.8729 16.3403 55.1718C16.0306 55.4706 15.6628 55.7077 15.258 55.8696C14.8531 56.0315 14.4191 56.115 13.9808 56.1153C13.5425 56.1156 13.1084 56.0327 12.7033 55.8714C12.2982 55.7101 11.93 55.4735 11.6198 55.1751Z" fill="#F7DA33"/>
<path fill-rule="evenodd" clip-rule="evenodd" d="M289.038 6.16257L299.365 16.1093C299.99 16.7119 300.838 17.0504 301.723 17.0505C302.607 17.0506 303.456 16.7122 304.081 16.1097C304.707 15.5073 305.058 14.6901 305.058 13.838C305.058 12.9859 304.707 12.1687 304.082 11.5661L293.757 1.61742C293.129 1.02439 292.283 0.694094 291.404 0.698282C290.525 0.702469 289.683 1.04084 289.061 1.63983C288.439 2.23881 288.088 3.04997 288.084 3.89705C288.079 4.74414 288.422 5.55863 289.038 6.16351V6.16257Z" fill="#023948"/>
<path fill-rule="evenodd" clip-rule="evenodd" d="M299.365 1.61616L289.038 11.5647C288.425 12.1699 288.084 12.9838 288.089 13.8297C288.094 14.6755 288.446 15.4853 289.067 16.0832C289.688 16.6812 290.529 17.0191 291.407 17.0237C292.285 17.0284 293.129 16.6993 293.757 16.1079L304.082 6.1613C304.708 5.55871 305.06 4.74128 305.06 3.88891C305.06 3.03653 304.709 2.219 304.083 1.61616C303.458 1.01331 302.609 0.674497 301.724 0.674316C300.839 0.674136 299.991 1.01256 299.365 1.61516V1.61616Z" fill="#023948"/>
<path d="M27.9844 130.431C38.6518 102.543 57.0752 78.0188 81.2392 59.5408C105.403 41.0628 134.377 29.3428 164.991 25.663C195.605 21.9831 226.679 26.4851 254.816 38.6765C282.952 50.8679 307.066 70.279 324.519 94.7865L324.446 94.6776C332.377 105.775 338.833 117.787 343.663 130.431C338.833 143.073 332.377 155.082 324.446 166.178L324.519 166.075C307.065 190.582 282.951 209.992 254.815 222.183C226.679 234.374 195.605 238.876 164.991 235.196C134.377 231.516 105.404 219.797 81.24 201.319C57.076 182.842 38.6524 158.318 27.9844 130.431Z" fill="white"/>
<path opacity="0.365" d="M183.992 22.2041C161.882 22.203 140.269 28.518 121.884 40.3506C103.5 52.1832 89.1708 69.002 80.7087 88.6801C72.2467 108.358 70.0319 130.012 74.3444 150.902C78.6568 171.793 89.303 190.983 104.936 206.044C120.57 221.106 140.488 231.364 162.173 235.52C183.858 239.676 206.335 237.544 226.763 229.394C247.19 221.243 264.649 207.441 276.934 189.731C289.218 172.021 295.775 151.2 295.775 129.9C295.776 101.338 284 73.9463 263.037 53.7494C242.073 33.5526 213.64 22.2054 183.992 22.2041ZM238.66 79.4893V181.301H132.984V79.4893H238.66Z" fill="#023948"/>
<path fill-rule="evenodd" clip-rule="evenodd" d="M327.211 167.976C309.4 192.952 284.805 212.73 256.112 225.147C227.42 237.564 195.737 242.142 164.526 238.382C133.315 234.621 103.778 222.666 79.1443 203.823C54.5108 184.981 35.7292 159.976 24.8529 131.544C24.5803 130.828 24.5803 130.043 24.8529 129.328C35.8891 100.513 55.0337 75.2261 80.1429 56.2993C80.4873 56.0363 80.8824 55.8415 81.3053 55.726C81.7281 55.6105 82.1705 55.5767 82.607 55.6266C83.0435 55.6764 83.4655 55.8088 83.8486 56.0163C84.2318 56.2237 84.5686 56.5021 84.8397 56.8354C85.1108 57.1687 85.3109 57.5503 85.4283 57.9583C85.5458 58.3664 85.5784 58.7927 85.5242 59.2129C85.4701 59.6331 85.3302 60.0389 85.1127 60.4068C84.8953 60.7748 84.6044 61.0977 84.2569 61.357C60.4533 79.3013 42.2197 103.196 31.5439 130.438C42.1751 157.602 60.331 181.439 84.0387 199.36C107.746 217.281 136.099 228.6 166.016 232.087C195.933 235.573 226.269 231.094 253.729 219.136C281.189 207.179 304.721 188.199 321.77 164.261C322.273 163.569 323.039 163.096 323.902 162.943C324.764 162.791 325.655 162.972 326.38 163.448C327.105 163.923 327.606 164.655 327.776 165.484C327.945 166.313 327.769 167.173 327.285 167.878L327.212 167.983L327.211 167.976Z" fill="#023948"/>
<path fill-rule="evenodd" clip-rule="evenodd" d="M321.842 96.7007L321.771 96.6044C302.488 69.5687 275 48.9382 243.072 37.5397C211.144 26.1411 176.338 24.5321 143.424 32.9331C142.568 33.1518 141.658 33.0342 140.893 32.6063C140.128 32.1784 139.57 31.4752 139.343 30.6513C139.116 29.8275 139.238 28.9505 139.682 28.2133C140.126 27.4761 140.856 26.9391 141.712 26.7204C175.905 17.9933 212.061 19.6489 245.24 31.4611C278.42 43.2733 307.005 64.6659 327.09 92.7163C327.126 92.7606 327.161 92.8126 327.19 92.8559C335.277 104.175 341.861 116.426 346.79 129.321C346.949 129.719 347.025 130.144 347.013 130.57C347.001 130.996 346.9 131.416 346.718 131.805C346.535 132.194 346.274 132.544 345.95 132.834C345.625 133.125 345.244 133.35 344.828 133.497C344.413 133.644 343.971 133.71 343.528 133.691C343.086 133.672 342.652 133.568 342.251 133.385C341.851 133.203 341.493 132.945 341.197 132.628C340.901 132.311 340.673 131.94 340.528 131.537C335.824 119.221 329.545 107.518 321.838 96.6978L321.842 96.7007Z" fill="#023948"/>
<path fill-rule="evenodd" clip-rule="evenodd" d="M136.676 83.0404V105.079C136.676 106.021 136.287 106.925 135.596 107.591C134.904 108.257 133.967 108.631 132.989 108.631C132.011 108.631 131.073 108.257 130.382 107.591C129.69 106.925 129.302 106.021 129.302 105.079V79.4904C129.302 78.5484 129.69 77.6449 130.382 76.9788C131.073 76.3127 132.011 75.9385 132.989 75.9385H159.542C160.519 75.9385 161.457 76.3126 162.148 76.9785C162.839 77.6444 163.228 78.5477 163.228 79.4895C163.228 80.4312 162.839 81.3344 162.148 82.0003C161.457 82.6663 160.519 83.0404 159.542 83.0404H136.676Z" fill="#023948"/>
<path fill-rule="evenodd" clip-rule="evenodd" d="M234.973 83.0404H212.109C211.131 83.0404 210.194 82.6663 209.502 82.0003C208.811 81.3344 208.423 80.4312 208.423 79.4895C208.423 78.5477 208.811 77.6444 209.502 76.9785C210.194 76.3126 211.131 75.9385 212.109 75.9385H238.66C239.144 75.9384 239.624 76.0301 240.071 76.2086C240.518 76.3871 240.925 76.6487 241.267 76.9785C241.61 77.3084 241.881 77.7 242.066 78.131C242.252 78.562 242.347 79.0239 242.347 79.4904V105.079C242.347 106.021 241.958 106.925 241.267 107.591C240.576 108.257 239.638 108.631 238.66 108.631C237.682 108.631 236.744 108.257 236.053 107.591C235.361 106.925 234.973 106.021 234.973 105.079V83.0404Z" fill="#023948"/>
<path fill-rule="evenodd" clip-rule="evenodd" d="M136.676 177.749H159.542C160.519 177.749 161.457 178.123 162.148 178.789C162.839 179.455 163.228 180.358 163.228 181.3C163.228 182.242 162.839 183.145 162.148 183.811C161.457 184.477 160.519 184.851 159.542 184.851H132.99C132.012 184.851 131.075 184.477 130.383 183.811C129.692 183.146 129.303 182.243 129.303 181.301V155.714C129.303 154.772 129.691 153.869 130.383 153.203C131.074 152.537 132.012 152.162 132.99 152.162C133.968 152.162 134.905 152.537 135.597 153.203C136.288 153.869 136.677 154.772 136.677 155.714V177.749H136.676Z" fill="#023948"/>
<path fill-rule="evenodd" clip-rule="evenodd" d="M234.973 177.749V155.714C234.973 154.772 235.361 153.869 236.053 153.203C236.744 152.537 237.682 152.162 238.66 152.162C239.638 152.162 240.576 152.537 241.267 153.203C241.958 153.869 242.347 154.772 242.347 155.714V181.301C242.347 181.767 242.251 182.229 242.066 182.66C241.881 183.091 241.609 183.482 241.267 183.812C240.924 184.141 240.518 184.403 240.07 184.581C239.623 184.759 239.144 184.851 238.66 184.851H212.109C211.131 184.851 210.194 184.477 209.502 183.811C208.811 183.145 208.423 182.242 208.423 181.3C208.423 180.358 208.811 179.455 209.502 178.789C210.194 178.123 211.131 177.749 212.109 177.749H234.973Z" fill="#023948"/>
<path fill-rule="evenodd" clip-rule="evenodd" d="M189.512 90.9773V64.8009C189.512 63.8589 189.123 62.9555 188.432 62.2894C187.74 61.6232 186.803 61.249 185.825 61.249C184.847 61.249 183.909 61.6232 183.218 62.2894C182.526 62.9555 182.138 63.8589 182.138 64.8009V90.9773C182.138 91.9194 182.526 92.8228 183.218 93.4889C183.909 94.155 184.847 94.5293 185.825 94.5293C186.803 94.5293 187.74 94.155 188.432 93.4889C189.123 92.8228 189.512 91.9194 189.512 90.9773Z" fill="#F7DA33"/>
<path fill-rule="evenodd" clip-rule="evenodd" d="M189.512 195.992V169.817C189.512 168.875 189.123 167.971 188.432 167.305C187.74 166.639 186.803 166.265 185.825 166.265C184.847 166.265 183.909 166.639 183.218 167.305C182.526 167.971 182.138 168.875 182.138 169.817V195.992C182.138 196.934 182.526 197.838 183.218 198.504C183.909 199.17 184.847 199.544 185.825 199.544C186.803 199.544 187.74 199.17 188.432 198.504C189.123 197.838 189.512 196.934 189.512 195.992Z" fill="#F7DA33"/>
<path fill-rule="evenodd" clip-rule="evenodd" d="M226.744 133.948H253.915C254.893 133.948 255.83 133.574 256.522 132.908C257.213 132.242 257.602 131.338 257.602 130.396C257.602 129.454 257.213 128.551 256.522 127.885C255.83 127.218 254.893 126.844 253.915 126.844H226.744C225.766 126.844 224.828 127.218 224.137 127.885C223.445 128.551 223.057 129.454 223.057 130.396C223.057 131.338 223.445 132.242 224.137 132.908C224.828 133.574 225.766 133.948 226.744 133.948Z" fill="#F7DA33"/>
<path fill-rule="evenodd" clip-rule="evenodd" d="M117.735 133.948H144.904C145.882 133.948 146.819 133.574 147.511 132.908C148.202 132.242 148.591 131.338 148.591 130.396C148.591 129.454 148.202 128.551 147.511 127.885C146.819 127.218 145.882 126.844 144.904 126.844H117.735C116.757 126.844 115.819 127.218 115.128 127.885C114.436 128.551 114.048 129.454 114.048 130.396C114.048 131.338 114.436 132.242 115.128 132.908C115.819 133.574 116.757 133.948 117.735 133.948Z" fill="#F7DA33"/>
</svg>
