<svg width="391" height="257" viewBox="0 0 391 257" fill="none" xmlns="http://www.w3.org/2000/svg">
<path d="M197.067 256.335C266.82 256.335 323.366 250.433 323.366 243.154C323.366 235.874 266.82 229.973 197.067 229.973C127.314 229.973 70.7676 235.874 70.7676 243.154C70.7676 250.433 127.314 256.335 197.067 256.335Z" fill="#023948"/>
<path fill-rule="evenodd" clip-rule="evenodd" d="M43.002 8.26172L45.6559 5.70497C46.2422 5.13335 46.5699 4.36152 46.5675 3.55793C46.5651 2.75435 46.2328 1.9843 45.6431 1.41595C45.0534 0.847604 44.2542 0.527125 43.4201 0.524447C42.5859 0.521769 41.7846 0.837115 41.1909 1.40167L38.5359 3.95941L35.8809 1.40167C35.5882 1.11634 35.2399 0.889559 34.856 0.734417C34.472 0.579275 34.0601 0.49885 33.6437 0.497693C33.2273 0.496536 32.8148 0.574709 32.4299 0.727714C32.0451 0.880719 31.6954 1.10551 31.401 1.3892C31.1067 1.67289 30.8734 2.00987 30.7147 2.38072C30.5561 2.75157 30.4752 3.14901 30.4766 3.55011C30.478 3.95122 30.5616 4.34809 30.7228 4.71792C30.884 5.08774 31.1196 5.42318 31.4159 5.70497L34.0709 8.26172L31.4159 10.8195C30.8299 11.3913 30.5025 12.1633 30.5053 12.9669C30.508 13.7705 30.8408 14.5404 31.4308 15.1085C32.0208 15.6766 32.82 15.9967 33.6542 15.9991C34.4883 16.0014 35.2896 15.6857 35.883 15.1209L38.5369 12.5641L41.1909 15.1209C41.783 15.6913 42.586 16.0117 43.4234 16.0117C44.2607 16.0117 45.0638 15.6913 45.6559 15.1209C46.248 14.5505 46.5806 13.7768 46.5806 12.9702C46.5806 12.1635 46.248 11.3899 45.6559 10.8195L43.002 8.26172Z" fill="#023948"/>
<path fill-rule="evenodd" clip-rule="evenodd" d="M386.865 97.5103L389.52 94.9526C390.112 94.3822 390.445 93.6086 390.445 92.8019C390.445 91.9952 390.112 91.2216 389.52 90.6512C388.928 90.0808 388.125 89.7603 387.288 89.7603C386.451 89.7603 385.647 90.0808 385.055 90.6512L382.4 93.208L379.746 90.6512C379.454 90.3658 379.106 90.1389 378.722 89.9835C378.338 89.8282 377.926 89.7476 377.51 89.7462C377.093 89.7449 376.681 89.8229 376.296 89.9757C375.911 90.1286 375.561 90.3532 375.266 90.6368C374.972 90.9204 374.738 91.2572 374.58 91.628C374.421 91.9988 374.34 92.3962 374.341 92.7973C374.342 93.1984 374.426 93.5953 374.587 93.9652C374.748 94.3351 374.983 94.6707 375.279 94.9526L377.933 97.5103L375.279 100.067C374.986 100.35 374.753 100.685 374.594 101.054C374.436 101.423 374.354 101.819 374.354 102.218C374.354 102.618 374.436 103.014 374.594 103.383C374.753 103.752 374.986 104.087 375.279 104.37C375.572 104.652 375.92 104.877 376.303 105.03C376.686 105.183 377.097 105.261 377.512 105.261C377.927 105.261 378.338 105.183 378.721 105.03C379.104 104.877 379.452 104.653 379.745 104.37L382.399 101.814L385.054 104.37C385.648 104.935 386.449 105.25 387.283 105.248C388.118 105.245 388.917 104.924 389.506 104.356C390.096 103.788 390.429 103.018 390.431 102.214C390.433 101.411 390.106 100.639 389.519 100.067L386.865 97.5103Z" fill="#F7DA33"/>
<path fill-rule="evenodd" clip-rule="evenodd" d="M15.4861 190.621L12.8322 188.064L15.4861 185.507C16.0721 184.935 16.3995 184.163 16.3968 183.36C16.394 182.556 16.0613 181.786 15.4713 181.218C14.8814 180.65 14.0821 180.33 13.248 180.328C12.4138 180.325 11.6126 180.641 11.0192 181.206L8.36514 183.763L5.71011 181.206C5.11624 180.644 4.31603 180.331 3.48355 180.334C2.65107 180.338 1.85376 180.658 1.26517 181.225C0.676575 181.792 0.344412 182.561 0.340849 183.363C0.337287 184.165 0.662593 184.935 1.24612 185.507L3.90018 188.064L1.24612 190.621C0.669519 191.194 0.350039 191.963 0.356474 192.761C0.362909 193.56 0.69477 194.324 1.28055 194.888C1.86632 195.453 2.65904 195.773 3.4877 195.78C4.31636 195.787 5.11453 195.479 5.71011 194.924L8.36514 192.366L11.0192 194.924C11.3109 195.214 11.6593 195.445 12.0445 195.603C12.4296 195.762 12.8437 195.845 13.2625 195.848C13.6813 195.851 14.0965 195.774 14.484 195.621C14.8716 195.468 15.2236 195.242 15.5198 194.957C15.816 194.671 16.0503 194.332 16.2091 193.959C16.368 193.586 16.4481 193.185 16.445 192.782C16.4418 192.378 16.3556 191.98 16.1909 191.609C16.0263 191.238 15.7867 190.902 15.4861 190.621Z" fill="#F7DA33"/>
<path d="M193.426 236.153C257.647 236.153 309.71 185.998 309.71 124.13C309.71 62.261 257.647 12.1064 193.426 12.1064C129.204 12.1064 77.1416 62.261 77.1416 124.13C77.1416 185.998 129.204 236.153 193.426 236.153Z" fill="#A2B6BC"/>
<path fill-rule="evenodd" clip-rule="evenodd" d="M296.754 168.53C290.66 181.664 281.928 193.505 271.061 203.372C260.195 213.239 247.408 220.936 233.438 226.019C219.468 231.102 204.592 233.471 189.668 232.988C174.743 232.506 160.065 229.182 146.481 223.209C132.896 217.235 120.673 208.73 110.517 198.184C100.361 187.637 92.4728 175.259 87.3069 161.761C82.1409 148.263 79.7998 133.914 80.4183 119.541C81.0368 105.167 84.6028 91.0541 90.9106 78.0147C91.2479 77.2867 91.275 76.4601 90.9862 75.713C90.6973 74.9659 90.1154 74.3579 89.3659 74.0198C88.6164 73.6817 87.7592 73.6405 86.9785 73.9052C86.1978 74.1698 85.5562 74.7191 85.1916 75.4349C78.5142 89.2038 74.734 104.11 74.0691 119.294C73.4041 134.478 75.8676 149.639 81.3175 163.9C86.7674 178.162 95.0957 191.243 105.822 202.387C116.547 213.531 129.458 222.519 143.809 228.83C158.16 235.141 173.666 238.652 189.433 239.159C205.199 239.666 220.914 237.159 235.67 231.784C250.425 226.409 263.93 218.271 275.403 207.84C286.877 197.41 296.092 184.894 302.517 171.014C302.693 170.648 302.792 170.252 302.808 169.85C302.825 169.447 302.758 169.045 302.611 168.667C302.465 168.29 302.242 167.944 301.955 167.65C301.669 167.356 301.325 167.12 300.943 166.955C300.561 166.791 300.149 166.701 299.731 166.691C299.312 166.681 298.896 166.752 298.506 166.898C298.117 167.045 297.761 167.265 297.46 167.545C297.159 167.825 296.919 168.16 296.754 168.53Z" fill="#023948"/>
<path fill-rule="evenodd" clip-rule="evenodd" d="M131.111 33.18C148.162 22.3351 167.944 16.1419 188.355 15.258C208.766 14.3742 229.045 18.8327 247.037 28.1601C265.029 37.4875 280.063 51.3353 290.541 68.2329C301.02 85.1304 306.552 104.447 306.549 124.13C306.549 124.937 306.882 125.71 307.474 126.281C308.066 126.851 308.869 127.172 309.707 127.172C310.544 127.172 311.348 126.851 311.94 126.281C312.532 125.71 312.864 124.937 312.864 124.13C312.867 103.347 307.026 82.9523 295.962 65.1111C284.898 47.27 269.024 32.649 250.027 22.8012C231.03 12.9535 209.618 8.24671 188.067 9.18089C166.516 10.1151 145.63 16.6553 127.627 28.1069C127.282 28.3273 126.984 28.6112 126.752 28.9423C126.52 29.2734 126.358 29.6452 126.275 30.0366C126.193 30.4281 126.191 30.8314 126.27 31.2235C126.349 31.6156 126.507 31.989 126.736 32.3222C126.965 32.6553 127.259 32.9418 127.603 33.1653C127.947 33.3887 128.333 33.5448 128.739 33.6245C129.145 33.7043 129.564 33.7062 129.971 33.6301C130.378 33.554 130.766 33.4014 131.111 33.181V33.18Z" fill="#023948"/>
<path d="M193.427 215.696C245.921 215.696 288.476 174.701 288.476 124.13C288.476 73.5591 245.921 32.5635 193.427 32.5635C140.933 32.5635 98.3779 73.5591 98.3779 124.13C98.3779 174.701 140.933 215.696 193.427 215.696Z" fill="white"/>
<path d="M245.615 174.407C274.439 146.639 274.439 101.618 245.615 73.8502C216.79 46.0822 170.057 46.0822 141.233 73.8502C112.409 101.618 112.409 146.639 141.233 174.407C170.057 202.175 216.79 202.175 245.615 174.407Z" fill="#A2B6BC"/>
<path d="M230.6 159.943C251.132 140.164 251.132 108.094 230.6 88.3141C210.068 68.5342 176.778 68.5342 156.246 88.3141C135.714 108.094 135.714 140.164 156.246 159.943C176.778 179.723 210.068 179.723 230.6 159.943Z" fill="white"/>
<path d="M162.087 124.129C162.087 130.099 163.925 135.936 167.369 140.9C170.812 145.864 175.707 149.733 181.433 152.018C187.159 154.303 193.459 154.9 199.538 153.736C205.617 152.571 211.2 149.695 215.583 145.474C219.965 141.252 222.949 135.873 224.159 130.017C225.368 124.161 224.747 118.091 222.376 112.575C220.004 107.059 215.988 102.344 210.835 99.0267C205.682 95.7093 199.624 93.9385 193.426 93.9381C189.31 93.9379 185.235 94.7186 181.433 96.2357C177.63 97.7529 174.175 99.9767 171.265 102.78C168.355 105.584 166.047 108.912 164.472 112.575C162.897 116.238 162.087 120.164 162.087 124.129Z" fill="#A2B6BC"/>
<path d="M197.306 133.115C202.458 131.05 204.896 125.352 202.752 120.389C200.608 115.426 194.693 113.077 189.541 115.142C184.389 117.208 181.951 122.906 184.095 127.869C186.239 132.832 192.154 135.181 197.306 133.115Z" fill="white"/>
<path d="M323.036 149.9C321.324 149.806 319.651 149.377 318.118 148.637C316.585 147.898 315.226 146.864 314.123 145.6L300.14 127.617H346.114L360.094 145.6C361.932 147.96 360.928 149.9 357.863 149.9H323.036ZM193.424 127.617V121.179H300.14L314.124 103.198C315.226 101.934 316.586 100.9 318.118 100.16C319.651 99.421 321.324 98.9915 323.036 98.8984H357.862C360.927 98.8984 361.931 100.835 360.093 103.198L346.114 121.179V127.617H193.424Z" fill="#F7DA33"/>
</svg>
