<svg width="280" height="245" viewBox="0 0 280 245" fill="none" xmlns="http://www.w3.org/2000/svg">
<path d="M160.127 244.905C226.089 244.905 279.561 239.985 279.561 233.917C279.561 227.848 226.089 222.928 160.127 222.928C94.1658 222.928 40.6934 227.848 40.6934 233.917C40.6934 239.985 94.1658 244.905 160.127 244.905Z" fill="#023948"/>
<path fill-rule="evenodd" clip-rule="evenodd" d="M14.4253 100.208L12.0522 97.9218L14.4253 95.6358C14.9437 95.1237 15.2318 94.4355 15.2273 93.7203C15.2227 93.005 14.9258 92.3203 14.4009 91.8145C13.876 91.3086 13.1653 91.0222 12.4229 91.0175C11.6804 91.0128 10.9661 91.29 10.4343 91.7891L8.0603 94.0761L5.68628 91.7891C5.15677 91.2791 4.43868 90.9927 3.68994 90.9928C2.9412 90.9929 2.22298 91.2795 1.6936 91.7896C1.16423 92.2997 0.867094 92.9915 0.867188 93.7128C0.867281 94.4341 1.16459 95.1258 1.69409 95.6358L4.06714 97.9218L1.69409 100.208C1.16472 100.718 0.867281 101.409 0.867188 102.13C0.867094 102.852 1.16436 103.543 1.6936 104.053C2.22284 104.563 2.9409 104.85 3.68945 104.85C4.438 104.85 5.15593 104.564 5.6853 104.054L8.05811 101.768L10.4312 104.054C10.9605 104.564 11.6785 104.85 12.4272 104.85C13.176 104.851 13.8943 104.564 14.4238 104.054C14.9533 103.544 15.2506 102.852 15.2507 102.131C15.2508 101.41 14.9537 100.718 14.4243 100.208H14.4253Z" fill="#F7DA33"/>
<path fill-rule="evenodd" clip-rule="evenodd" d="M276.362 167.255L278.735 164.969C279.254 164.457 279.542 163.769 279.537 163.053C279.533 162.338 279.236 161.653 278.711 161.147C278.186 160.642 277.475 160.355 276.733 160.351C275.99 160.346 275.276 160.623 274.744 161.122L272.371 163.409L269.998 161.122C269.465 160.628 268.752 160.355 268.013 160.362C267.273 160.369 266.566 160.655 266.043 161.159C265.52 161.663 265.223 162.344 265.216 163.056C265.209 163.769 265.492 164.455 266.005 164.969L268.378 167.255L266.005 169.541C265.487 170.053 265.199 170.742 265.204 171.457C265.209 172.172 265.506 172.857 266.031 173.362C266.556 173.868 267.267 174.154 268.01 174.158C268.752 174.163 269.467 173.885 269.998 173.386L272.371 171.1L274.744 173.386C275.006 173.638 275.317 173.838 275.66 173.975C276.002 174.112 276.369 174.182 276.74 174.182C277.11 174.182 277.477 174.112 277.82 173.975C278.162 173.838 278.473 173.638 278.735 173.386C278.997 173.133 279.205 172.833 279.347 172.504C279.489 172.174 279.562 171.82 279.562 171.463C279.562 171.106 279.489 170.753 279.347 170.423C279.205 170.093 278.997 169.793 278.735 169.541L276.362 167.255Z" fill="#023948"/>
<path fill-rule="evenodd" clip-rule="evenodd" d="M264.353 17.5238L261.98 15.2377L264.353 12.9516C264.871 12.4396 265.16 11.7514 265.155 11.0362C265.15 10.3209 264.854 9.6362 264.329 9.13031C263.804 8.62441 263.093 8.33809 262.351 8.33335C261.608 8.32861 260.894 8.60582 260.362 9.10496L257.988 11.3919L255.614 9.10496C255.352 8.85245 255.041 8.65214 254.698 8.51551C254.355 8.37887 253.988 8.30855 253.618 8.30859C253.247 8.30864 252.88 8.37908 252.537 8.5158C252.195 8.65252 251.884 8.85286 251.622 9.10544C251.359 9.35801 251.152 9.65784 251.01 9.98783C250.868 10.3178 250.795 10.6715 250.795 11.0286C250.795 11.3858 250.868 11.7395 251.01 12.0694C251.152 12.3994 251.36 12.6991 251.622 12.9516L253.995 15.2377L251.622 17.5238C251.093 18.0336 250.795 18.7251 250.795 19.4461C250.795 20.1672 251.093 20.8587 251.622 21.3685C252.151 21.8784 252.869 22.1648 253.617 22.1648C254.366 22.1648 255.084 21.8784 255.613 21.3685L257.986 19.0825L260.358 21.3685C260.887 21.8787 261.605 22.1656 262.354 22.1658C263.103 22.1661 263.821 21.8798 264.351 21.37C264.88 20.8601 265.178 20.1684 265.178 19.4471C265.179 18.7258 264.881 18.034 264.352 17.5238H264.353Z" fill="#F7DA33"/>
<path d="M121.923 169.979C121.66 182.769 121.173 206.712 121.173 206.712C121.108 210.622 122.65 214.399 125.463 217.218C128.277 220.037 132.134 221.669 136.192 221.759L176.008 222.512C180.068 222.578 183.99 221.093 186.916 218.382C189.843 215.671 191.537 211.954 191.628 208.043C191.628 208.043 192.115 184.097 192.375 171.311C190.279 172.168 188.133 172.906 185.946 173.521C174.126 176.871 162.354 176.648 157.024 176.55C150.728 176.428 135.415 176.14 121.923 169.979Z" fill="#A2B6BC"/>
<path d="M139.405 221.815C140.691 225.039 142.946 227.821 145.881 229.805C148.816 231.789 152.299 232.885 155.884 232.953C159.469 233.022 162.993 232.059 166.007 230.188C169.021 228.317 171.388 225.623 172.805 222.45L139.405 221.815Z" fill="#023948"/>
<path fill-rule="evenodd" clip-rule="evenodd" d="M174.548 225.205C172.642 228.572 169.775 231.343 166.286 233.191C162.798 235.039 158.833 235.887 154.86 235.633C150.887 235.38 147.073 234.037 143.867 231.762C140.662 229.487 138.199 226.376 136.77 222.796C136.517 222.126 136.547 221.387 136.855 220.738C137.162 220.089 137.721 219.583 138.412 219.327C139.104 219.072 139.871 219.089 140.55 219.373C141.229 219.658 141.764 220.188 142.041 220.849C143.127 223.568 145.029 225.913 147.504 227.585C149.98 229.257 152.916 230.18 155.939 230.238C158.961 230.295 161.933 229.483 164.475 227.906C167.016 226.328 169.013 224.057 170.208 221.382C170.43 220.885 170.801 220.463 171.273 220.17C171.745 219.877 172.297 219.726 172.858 219.736L176.058 219.798C179.37 219.852 182.57 218.641 184.957 216.429C187.345 214.217 188.727 211.185 188.8 207.994L189.081 194.24C189.096 193.519 189.407 192.833 189.947 192.333C190.486 191.834 191.21 191.561 191.958 191.575C192.707 191.589 193.418 191.889 193.937 192.409C194.456 192.929 194.739 193.626 194.724 194.347C194.465 207.134 194.444 208.102 194.444 208.102C194.337 212.734 192.331 217.136 188.864 220.346C185.397 223.556 180.752 225.314 175.944 225.234L174.544 225.209L174.548 225.205Z" fill="#023948"/>
<path fill-rule="evenodd" clip-rule="evenodd" d="M128.721 216.408C127.218 215.258 126.009 213.79 125.19 212.117C124.37 210.445 123.962 208.612 123.996 206.763C123.996 206.763 124.483 182.821 124.746 170.032C124.754 169.675 124.688 169.32 124.553 168.988C124.418 168.655 124.217 168.352 123.96 168.094C123.703 167.837 123.396 167.631 123.057 167.487C122.717 167.344 122.352 167.267 121.981 167.26C121.611 167.253 121.242 167.316 120.897 167.446C120.552 167.576 120.237 167.77 119.97 168.017C119.702 168.265 119.488 168.56 119.34 168.887C119.191 169.214 119.111 169.566 119.103 169.923C118.84 182.713 118.35 206.657 118.35 206.657C118.299 209.34 118.89 211.998 120.077 214.426C121.265 216.853 123.016 218.985 125.196 220.655C125.486 220.878 125.818 221.044 126.174 221.143C126.53 221.242 126.903 221.273 127.271 221.233C127.639 221.194 127.996 221.084 128.321 220.912C128.645 220.74 128.931 220.507 129.163 220.229C129.394 219.95 129.566 219.63 129.669 219.287C129.772 218.944 129.804 218.584 129.763 218.23C129.722 217.875 129.609 217.531 129.43 217.219C129.251 216.906 129.01 216.63 128.72 216.407L128.721 216.408Z" fill="#023948"/>
<path d="M85.0794 73.0132C84.9805 77.5798 85.3429 82.1448 86.1614 86.6438V86.6544C86.7334 89.2831 87.3739 91.9439 88.0826 94.6368C96.9936 127.731 117.008 164.425 121.923 169.978C135.416 176.139 150.732 176.427 157.023 176.548C163.314 176.67 178.599 176.954 192.324 171.324C192.341 171.32 192.358 171.316 192.375 171.31C197.52 165.946 219.022 130.037 229.259 97.3005C230.089 94.6397 230.846 92.0068 231.505 89.4106L231.513 89.4019C235.324 72.3003 232.481 54.4461 223.525 39.2312C214.568 24.0163 200.123 12.501 182.932 6.87294C165.741 1.24491 147.003 1.89638 130.278 8.70352C113.553 15.5107 100.006 27.9992 92.2115 43.7965V43.807C87.7039 52.9437 85.2718 62.9018 85.0774 73.0161L85.0794 73.0132Z" fill="white"/>
<path fill-rule="evenodd" clip-rule="evenodd" d="M95.03 43.9024L89.3921 43.7097V43.6991C89.4059 43.3278 89.4988 42.9632 89.665 42.6279C97.7668 26.2424 111.831 13.2928 129.188 6.23659C146.546 -0.819583 165.989 -1.49111 183.826 4.3495C201.664 10.1901 216.654 22.1363 225.953 37.9207C235.252 53.7052 238.212 72.2292 234.271 89.977L233.582 91.1629L234.245 90.0588C233.575 92.7023 232.803 95.3795 231.96 98.0875C221.569 131.311 199.668 167.715 194.446 173.159C193.938 173.689 193.232 174.002 192.484 174.031C191.736 174.059 191.007 173.8 190.458 173.311C189.908 172.822 189.582 172.142 189.553 171.421C189.523 170.701 189.792 169.998 190.3 169.469C195.368 164.184 216.467 128.77 226.553 96.522C227.368 93.9084 228.113 91.3199 228.759 88.7718L228.781 88.6977C232.407 72.2534 229.642 55.0989 221.01 40.4886C212.377 25.8784 198.479 14.8286 181.95 9.4356C165.422 4.04258 147.414 4.68151 131.342 11.2311C115.271 17.7808 102.253 29.7855 94.76 44.9679L95.0291 43.9081L95.03 43.9024Z" fill="#023948"/>
<path fill-rule="evenodd" clip-rule="evenodd" d="M83.3634 87.0214C82.5255 82.3783 82.1545 77.6681 82.2555 72.9564C82.2699 72.2351 82.5811 71.5489 83.1207 71.0487C83.6603 70.5485 84.3842 70.2754 85.1329 70.2893C85.8816 70.3033 86.5939 70.6031 87.1131 71.123C87.6323 71.6428 87.9159 72.3401 87.9015 73.0614C87.8067 77.4507 88.1542 81.8385 88.9393 86.1631V86.1813C89.4963 88.741 90.1174 91.3353 90.8104 93.946C99.5884 126.551 119.224 162.736 124.067 168.208C124.308 168.48 124.49 168.795 124.604 169.134C124.718 169.474 124.762 169.833 124.732 170.189C124.703 170.545 124.601 170.892 124.432 171.21C124.263 171.528 124.031 171.811 123.748 172.043C123.466 172.274 123.139 172.45 122.786 172.56C122.433 172.67 122.061 172.712 121.692 172.683C121.322 172.655 120.962 172.556 120.632 172.394C120.301 172.231 120.008 172.007 119.767 171.735C114.778 166.101 94.3825 128.897 85.3395 95.3024C84.6148 92.5742 83.9646 89.8768 83.3893 87.2102C83.3745 87.1466 83.3632 87.0823 83.3553 87.0176L83.3634 87.0214Z" fill="#023948"/>
<path d="M185.081 106.049C186.693 106.048 188.292 105.771 189.803 105.229C191.447 104.637 192.954 103.738 194.237 102.585C195.521 101.432 196.556 100.046 197.283 98.5073C198.01 96.9686 198.416 95.3068 198.476 93.617C198.537 91.9272 198.251 90.2426 197.635 88.6592C195.468 83.0814 193.199 77.5478 190.787 72.0538C188.435 66.5386 185.73 61.1351 183.145 55.7066C181.909 52.9725 180.375 50.3329 178.994 47.6374C177.594 44.9574 176.175 42.2821 174.611 39.655C171.6 34.2912 168.307 29.0791 164.744 24.039C164.183 23.2574 163.372 22.6741 162.434 22.3782C161.497 22.0822 160.484 22.0898 159.552 22.3998C158.619 22.7098 157.817 23.3052 157.269 24.0951C156.72 24.885 156.455 25.8262 156.513 26.7749C156.927 32.8577 157.666 38.9159 158.726 44.9256C159.166 47.9293 159.769 50.8647 160.38 53.8251C161.012 56.7614 161.486 59.7478 162.26 62.6398C163.619 68.1493 164.896 73.6934 166.451 79.1479C158.826 78.9938 151.199 78.9553 143.568 79.1075L142.062 79.1296C140.089 79.1805 138.156 79.6825 136.423 80.5941C134.69 81.5058 133.207 82.8011 132.096 84.3733C130.984 85.9454 130.277 87.7495 130.031 89.6368C129.786 91.5241 130.009 93.4406 130.683 95.2283C132.475 99.9777 134.283 104.734 136.314 109.422C138.345 114.109 140.192 118.85 142.46 123.471C144.568 128.132 146.832 132.751 149.252 137.327C151.636 141.914 154.175 146.453 157.016 150.902C157.534 151.719 158.318 152.348 159.245 152.691C160.173 153.034 161.192 153.072 162.144 152.798C163.096 152.524 163.928 151.955 164.508 151.178C165.089 150.402 165.387 149.462 165.355 148.505C165.185 143.281 164.73 138.146 164.107 133.046C163.515 127.943 162.772 122.885 161.879 117.872C161.243 113.608 160.345 109.427 159.47 105.233L185.082 106.045L185.081 106.049Z" fill="#F7DA33"/>
</svg>
